<?xml version="1.0" encoding="UTF-8"?>
<svg version="1.1" xmlns="http://www.w3.org/2000/svg" width="780" height="690">
<path d="M0 0 C2.89620795 1.33775514 5.21482634 2.85373964 7.65234375 4.90625 C8.33949463 5.47996338 9.02664551 6.05367676 9.73461914 6.64477539 C10.82504517 7.56311157 10.82504517 7.56311157 11.9375 8.5 C18.09135052 13.62897133 24.31904029 18.5955294 30.6953125 23.4453125 C34.50521033 26.36584816 38.22014186 29.40061643 41.9375 32.4375 C49.21995233 38.38560343 56.58808026 44.21446722 64 50 C72.07892496 56.306178 80.09211903 62.68123391 88.03417969 69.15917969 C94.62299573 74.52513186 101.30185136 79.77161655 108 85 C116.07892496 91.306178 124.09211903 97.68123391 132.03417969 104.15917969 C138.62299573 109.52513186 145.30185136 114.77161655 152 120 C160.07892496 126.306178 168.09211903 132.68123391 176.03417969 139.15917969 C182.62299573 144.52513186 189.30185136 149.77161655 196 155 C204.07972859 161.30680529 212.09429089 167.68183066 220.03637695 174.16137695 C224.90962985 178.13093355 229.82968768 182.03502855 234.78125 185.90625 C239.68317014 189.74108548 244.54259318 193.62722341 249.39697266 197.52197266 C254.11711877 201.30468091 258.87052053 205.04282568 263.63818359 208.76538086 C266.88641052 211.31072936 270.10196817 213.89097858 273.29296875 216.5078125 C274.01427979 217.09892822 274.73559082 217.69004395 275.47875977 218.29907227 C276.87923094 219.44974947 278.27698991 220.60373795 279.67163086 221.76147461 C280.62694702 222.54663452 280.62694702 222.54663452 281.6015625 223.34765625 C282.16182129 223.81179932 282.72208008 224.27594238 283.29931641 224.75415039 C285.11566657 226.08473249 286.96277834 227.04927801 289 228 C292.9577764 224.61790017 296.85099458 221.21642354 300.5 217.5 C303.53832417 214.40643357 306.7476532 211.57894493 310.03125 208.75 C311.93023071 207.06201714 313.72005988 205.31230266 315.5 203.5 C318.53832417 200.40643357 321.7476532 197.57894493 325.03125 194.75 C326.93023071 193.06201714 328.72005988 191.31230266 330.5 189.5 C332.89053167 187.06610268 335.35046262 184.78644441 337.9375 182.5625 C340.74576347 180.14382221 343.39970593 177.64100317 346 175 C349.2215855 171.72797872 352.58592145 168.70683945 356.06640625 165.71484375 C358.56431556 163.4995262 360.88024989 161.1310183 363.21875 158.75 C365.71896185 156.29365151 368.37680516 154.03690632 371.03125 151.75 C372.93023071 150.06201714 374.72005988 148.31230266 376.5 146.5 C379.53832417 143.40643357 382.7476532 140.57894493 386.03125 137.75 C387.93023071 136.06201714 389.72005988 134.31230266 391.5 132.5 C394.53832417 129.40643357 397.7476532 126.57894493 401.03125 123.75 C402.93023071 122.06201714 404.72005988 120.31230266 406.5 118.5 C409.53832417 115.40643357 412.7476532 112.57894493 416.03125 109.75 C417.93023071 108.06201714 419.72005988 106.31230266 421.5 104.5 C423.89053167 102.06610268 426.35046262 99.78644441 428.9375 97.5625 C431.74576347 95.14382221 434.39970593 92.64100317 437 90 C440.2215855 86.72797872 443.58592145 83.70683945 447.06640625 80.71484375 C449.56431556 78.4995262 451.88024989 76.1310183 454.21875 73.75 C456.71896185 71.29365151 459.37680516 69.03690632 462.03125 66.75 C463.93023071 65.06201714 465.72005988 63.31230266 467.5 61.5 C470.53832417 58.40643357 473.7476532 55.57894493 477.03125 52.75 C478.93023071 51.06201714 480.72005988 49.31230266 482.5 47.5 C485.53832417 44.40643357 488.7476532 41.57894493 492.03125 38.75 C493.93023071 37.06201714 495.72005988 35.31230266 497.5 33.5 C500.53832417 30.40643357 503.7476532 27.57894493 507.03125 24.75 C508.93023071 23.06201714 510.72005988 21.31230266 512.5 19.5 C515.51012187 16.43527275 518.68651053 13.63581976 521.9453125 10.83984375 C524.85563552 8.23383207 527.54599613 5.43037324 530.23828125 2.6015625 C532 1 532 1 535 0 C535.18301899 58.60945182 535.32404676 117.21889038 535.40852264 175.8285693 C535.41850141 182.74435595 535.42887383 189.66014198 535.43945312 196.57592773 C535.4404992 197.2641349 535.44154527 197.95234207 535.44262304 198.661404 C535.47671944 220.97189641 535.53681395 243.28222682 535.61037777 265.59262107 C535.68796978 289.16748041 535.73596509 312.74219572 535.75270796 336.3171882 C535.76369755 350.44218917 535.79843524 364.56672511 535.86333174 378.69158297 C535.90554464 388.37102862 535.91841778 398.05023305 535.90801102 407.72976411 C535.90287519 413.31866091 535.91087378 418.90674383 535.9536438 424.49549675 C535.99250136 429.61024882 535.99459117 434.72363783 535.96719116 439.83845191 C535.9638036 441.69054313 535.97401749 443.5427185 535.99906546 445.39464343 C536.1756401 459.25342902 536.1756401 459.25342902 533.26108456 463.58339202 C531.25435888 465.36367384 529.31926788 466.66901169 527 468 C525.96554511 468.88662712 524.9543166 469.80134641 523.97265625 470.74609375 C523.01230469 471.63425781 522.05195312 472.52242188 521.0625 473.4375 C515.15682278 478.90038321 509.2979314 484.41258477 503.4440918 489.9309082 C496.93099407 496.07028565 490.39062024 502.1799536 483.84277344 508.28222656 C480.72706094 511.18659237 477.61365889 514.09343299 474.5 517 C473.25001082 518.16667826 472.00001083 519.33334493 470.75 520.5 C470.13125 521.0775 469.5125 521.655 468.875 522.25 C448.25000002 541.49999998 448.25000002 541.49999998 446.37524414 543.24975586 C445.12440869 544.41721314 443.87359491 545.58469363 442.62280273 546.75219727 C439.51076179 549.65695774 436.39835348 552.56132252 433.28515625 555.46484375 C426.84900509 561.46831248 420.4192971 567.47850974 414 573.5 C406.96370608 580.1002515 399.91408933 586.68608349 392.85888672 593.26611328 C389.73853697 596.17663651 386.61932898 599.08838287 383.5 602 C382.25000541 603.16667246 381.00000541 604.33333913 379.75 605.5 C379.13125 606.0775 378.5125 606.655 377.875 607.25 C357.24999999 626.50000001 357.24999999 626.50000001 355.37524414 628.24975586 C354.12440869 629.41721314 352.87359491 630.58469363 351.62280273 631.75219727 C348.51076179 634.65695774 345.39835348 637.56132252 342.28515625 640.46484375 C335.84900461 646.46831293 329.41944158 652.47866332 323 658.5 C320.99995372 660.37528706 318.99978637 662.25044481 316.99951172 664.12548828 C315.6597904 665.38145657 314.32027416 666.63764366 312.98095703 667.89404297 C311.00923686 669.74303998 309.03632255 671.59074757 307.0625 673.4375 C306.4422998 674.01790039 305.82209961 674.59830078 305.18310547 675.19628906 C301.03891646 679.06241203 296.83355984 682.84749527 292.5390625 686.546875 C290.88678721 687.94031477 290.88678721 687.94031477 290 690 C287.10379205 688.66224486 284.78517366 687.14626036 282.34765625 685.09375 C281.66050537 684.52003662 280.97335449 683.94632324 280.26538086 683.35522461 C279.53843018 682.74300049 278.81147949 682.13077637 278.0625 681.5 C271.90864948 676.37102867 265.68095971 671.4044706 259.3046875 666.5546875 C255.49478967 663.63415184 251.77985814 660.59938357 248.0625 657.5625 C240.78004767 651.61439657 233.41191974 645.78553278 226 640 C217.92107504 633.693822 209.90788097 627.31876609 201.96582031 620.84082031 C195.37700427 615.47486814 188.69814864 610.22838345 182 605 C173.92107504 598.693822 165.90788097 592.31876609 157.96582031 585.84082031 C151.37700427 580.47486814 144.69814864 575.22838345 138 570 C129.92107504 563.693822 121.90788097 557.31876609 113.96582031 550.84082031 C107.37700427 545.47486814 100.69814864 540.22838345 94 535 C85.92027141 528.69319471 77.90570911 522.31816934 69.96362305 515.83862305 C65.09037015 511.86906645 60.17031232 507.96497145 55.21875 504.09375 C50.31682986 500.25891452 45.45740682 496.37277659 40.60302734 492.47802734 C35.88288123 488.69531909 31.12947947 484.95717432 26.36181641 481.23461914 C23.11358948 478.68927064 19.89803183 476.10902142 16.70703125 473.4921875 C15.98572021 472.90107178 15.26440918 472.30995605 14.52124023 471.70092773 C13.12076906 470.55025053 11.72301009 469.39626205 10.32836914 468.23852539 C9.6914917 467.71508545 9.05461426 467.19164551 8.3984375 466.65234375 C7.83817871 466.18820068 7.27791992 465.72405762 6.70068359 465.24584961 C4.88433343 463.91526751 3.03722166 462.95072199 1 462 C-2.9577764 465.38209983 -6.85099458 468.78357646 -10.5 472.5 C-13.53832417 475.59356643 -16.7476532 478.42105507 -20.03125 481.25 C-21.93023071 482.93798286 -23.72005988 484.68769734 -25.5 486.5 C-28.53832417 489.59356643 -31.7476532 492.42105507 -35.03125 495.25 C-36.93023071 496.93798286 -38.72005988 498.68769734 -40.5 500.5 C-42.89053167 502.93389732 -45.35046262 505.21355559 -47.9375 507.4375 C-50.74576347 509.85617779 -53.39970593 512.35899683 -56 515 C-59.2215855 518.27202128 -62.58592145 521.29316055 -66.06640625 524.28515625 C-68.56431556 526.5004738 -70.88024989 528.8689817 -73.21875 531.25 C-75.71896185 533.70634849 -78.37680516 535.96309368 -81.03125 538.25 C-82.93023071 539.93798286 -84.72005988 541.68769734 -86.5 543.5 C-89.53832417 546.59356643 -92.7476532 549.42105507 -96.03125 552.25 C-97.93023071 553.93798286 -99.72005988 555.68769734 -101.5 557.5 C-104.53832417 560.59356643 -107.7476532 563.42105507 -111.03125 566.25 C-112.93023071 567.93798286 -114.72005988 569.68769734 -116.5 571.5 C-119.53832417 574.59356643 -122.7476532 577.42105507 -126.03125 580.25 C-127.93023071 581.93798286 -129.72005988 583.68769734 -131.5 585.5 C-133.89053167 587.93389732 -136.35046262 590.21355559 -138.9375 592.4375 C-141.74576347 594.85617779 -144.39970593 597.35899683 -147 600 C-150.2215855 603.27202128 -153.58592145 606.29316055 -157.06640625 609.28515625 C-159.56431556 611.5004738 -161.88024989 613.8689817 -164.21875 616.25 C-166.71896185 618.70634849 -169.37680516 620.96309368 -172.03125 623.25 C-173.93023071 624.93798286 -175.72005988 626.68769734 -177.5 628.5 C-180.53832417 631.59356643 -183.7476532 634.42105507 -187.03125 637.25 C-188.93023071 638.93798286 -190.72005988 640.68769734 -192.5 642.5 C-195.53832417 645.59356643 -198.7476532 648.42105507 -202.03125 651.25 C-203.93023071 652.93798286 -205.72005988 654.68769734 -207.5 656.5 C-210.53832417 659.59356643 -213.7476532 662.42105507 -217.03125 665.25 C-218.93023071 666.93798286 -220.72005988 668.68769734 -222.5 670.5 C-225.51012187 673.56472725 -228.68651053 676.36418024 -231.9453125 679.16015625 C-234.85563552 681.76616793 -237.54599613 684.56962676 -240.23828125 687.3984375 C-242 689 -242 689 -245 690 C-245.18301899 631.39054818 -245.32404676 572.78110962 -245.40852264 514.1714307 C-245.41850141 507.25564405 -245.42887383 500.33985802 -245.43945312 493.42407227 C-245.44102223 492.39176151 -245.44102223 492.39176151 -245.44262304 491.338596 C-245.47671944 469.02810359 -245.53681395 446.71777318 -245.61037777 424.40737893 C-245.68796978 400.83251959 -245.73596509 377.25780428 -245.75270796 353.6828118 C-245.76369755 339.55781083 -245.79843524 325.43327489 -245.86333174 311.30841703 C-245.90554464 301.62897138 -245.91841778 291.94976695 -245.90801102 282.27023589 C-245.90287519 276.68133909 -245.91087378 271.09325617 -245.9536438 265.50450325 C-245.99250136 260.38975118 -245.99459117 255.27636217 -245.96719116 250.16154809 C-245.9638036 248.30945687 -245.97401749 246.4572815 -245.99906546 244.60535657 C-246.1756401 230.74657098 -246.1756401 230.74657098 -243.26108456 226.41660798 C-241.25435888 224.63632616 -239.31926788 223.33098831 -237 222 C-235.96554511 221.11337288 -234.9543166 220.19865359 -233.97265625 219.25390625 C-233.01230469 218.36574219 -232.05195313 217.47757813 -231.0625 216.5625 C-225.15682278 211.09961679 -219.2979314 205.58741523 -213.4440918 200.0690918 C-206.93099407 193.92971435 -200.39062024 187.8200464 -193.84277344 181.71777344 C-190.72706094 178.81340763 -187.61365889 175.90656701 -184.5 173 C-183.25001082 171.83332174 -182.00001083 170.66665507 -180.75 169.5 C-180.13125 168.9225 -179.5125 168.345 -178.875 167.75 C-158.25 148.5 -158.25 148.5 -156.37524414 146.75024414 C-155.12440869 145.58278686 -153.87359491 144.41530637 -152.62280273 143.24780273 C-149.51076179 140.34304226 -146.39835348 137.43867748 -143.28515625 134.53515625 C-136.84900509 128.53168752 -130.4192971 122.52149026 -124 116.5 C-116.96370608 109.8997485 -109.91408933 103.31391651 -102.85888672 96.73388672 C-99.73853697 93.82336349 -96.61932898 90.91161713 -93.5 88 C-92.25000541 86.83332754 -91.00000541 85.66666087 -89.75 84.5 C-88.821875 83.63375 -88.821875 83.63375 -87.875 82.75 C-67.25 63.5 -67.25 63.5 -65.37524414 61.75024414 C-64.12440869 60.58278686 -62.87359491 59.41530637 -61.62280273 58.24780273 C-58.51076179 55.34304226 -55.39835348 52.43867748 -52.28515625 49.53515625 C-45.84900461 43.53168707 -39.41944158 37.52133668 -33 31.5 C-30.99995372 29.62471294 -28.99978637 27.74955519 -26.99951172 25.87451172 C-25.6597904 24.61854343 -24.32027416 23.36235634 -22.98095703 22.10595703 C-21.00923686 20.25696002 -19.03632255 18.40925243 -17.0625 16.5625 C-16.4422998 15.98209961 -15.82209961 15.40169922 -15.18310547 14.80371094 C-11.03891646 10.93758797 -6.83355984 7.15250473 -2.5390625 3.453125 C-0.88678721 2.05968523 -0.88678721 2.05968523 0 0 Z " fill="#263758" transform="translate(245,0)"/>
<path d="M0 0 C3.81180603 1.81434192 6.96570884 4.18673071 10.25 6.8125 C11.16591919 7.53783936 11.16591919 7.53783936 12.1003418 8.27783203 C17.38425004 12.47523539 22.60394803 16.75077538 27.82739258 21.02294922 C32.62416367 24.92811223 37.50538958 28.70527585 42.4375 32.4375 C49.03897174 37.43590855 55.46189858 42.6154554 61.83129883 47.90551758 C66.77109529 52.0040112 71.77250208 56.00914101 76.83276367 59.95751953 C81.0813168 63.27295933 85.29705855 66.62694903 89.5 70 C94.28937367 73.84271585 99.09994261 77.65564695 103.9375 81.4375 C108.94774443 85.35487028 113.89113974 89.34668658 118.8125 93.375 C124.2729349 97.84166747 129.81214025 102.18068056 135.4375 106.4375 C142.03815846 111.43529277 148.45995264 116.61457422 154.82910156 121.90332031 C161.45360036 127.39867805 168.20878968 132.71315932 175 138 C183.0811071 144.30330984 191.09219114 150.68129272 199.03417969 157.15917969 C205.62299573 162.52513186 212.30185136 167.77161655 219 173 C227.07892496 179.306178 235.09211903 185.68123391 243.03417969 192.15917969 C249.05220597 197.06027891 255.14337376 201.862856 261.26025391 206.63964844 C264.82797707 209.4293416 268.38471863 212.23304782 271.94384766 215.03369141 C272.73927979 215.65896729 272.73927979 215.65896729 273.55078125 216.296875 C274.05718173 216.71667253 274.56358221 217.13647007 275.08532816 217.56898874 C276.9849833 219.07292792 276.9849833 219.07292792 279.26753849 220.15702492 C282.17583593 221.83981782 283.9574223 223.3110324 286 226 C287.37288764 232.03207326 287.17704228 237.99455566 287.08229065 244.15330505 C287.08621591 246.04026731 287.09409724 247.92722479 287.10559314 249.81415612 C287.12572483 254.99808682 287.08971238 260.1803451 287.04459059 265.36406267 C287.00574406 270.95431165 287.01887534 276.54446543 287.02571106 282.1348114 C287.03043154 291.81991889 287.00218131 301.50448093 286.95157051 311.18945122 C286.8784438 325.19221542 286.85498927 339.19471574 286.84367859 353.1976502 C286.82397821 375.91603695 286.76415388 398.63408333 286.67895508 421.35229492 C286.59628535 443.4216155 286.53253779 465.49085832 286.49438477 487.56030273 C286.49320103 488.24067155 286.49201729 488.92104036 286.49079769 489.62202641 C286.47893093 496.45461886 286.46744861 503.28721191 286.45624795 510.11980549 C286.36229064 567.41340628 286.20348577 624.70668966 286 682 C282.18819397 680.18565808 279.03429116 677.81326929 275.75 675.1875 C275.13938721 674.70394043 274.52877441 674.22038086 273.8996582 673.72216797 C268.61574996 669.52476461 263.39605197 665.24922462 258.17260742 660.97705078 C253.37583633 657.07188777 248.49461042 653.29472415 243.5625 649.5625 C236.96102826 644.56409145 230.53810142 639.3845446 224.16870117 634.09448242 C219.22890471 629.9959888 214.22749792 625.99085899 209.16723633 622.04248047 C204.9186832 618.72704067 200.70294145 615.37305097 196.5 612 C191.71062633 608.15728415 186.90005739 604.34435305 182.0625 600.5625 C177.05225557 596.64512972 172.10886026 592.65331342 167.1875 588.625 C161.7270651 584.15833253 156.18785975 579.81931944 150.5625 575.5625 C143.96184154 570.56470723 137.54004736 565.38542578 131.17089844 560.09667969 C124.54639964 554.60132195 117.79121032 549.28684068 111 544 C102.9188929 537.69669016 94.90780886 531.31870728 86.96582031 524.84082031 C80.37700427 519.47486814 73.69814864 514.22838345 67 509 C58.92107504 502.693822 50.90788097 496.31876609 42.96582031 489.84082031 C36.94779403 484.93972109 30.85662624 480.137144 24.73974609 475.36035156 C21.17202293 472.5706584 17.61528137 469.76695218 14.05615234 466.96630859 C13.52586426 466.54945801 12.99557617 466.13260742 12.44921875 465.703125 C11.94281827 465.28332747 11.43641779 464.86352993 10.91467184 464.43101126 C9.0150167 462.92707208 9.0150167 462.92707208 6.73246151 461.84297508 C3.82416407 460.16018218 2.0425777 458.6889676 0 456 C-1.37288764 449.96792674 -1.17704228 444.00544434 -1.08229065 437.84669495 C-1.08621591 435.95973269 -1.09409724 434.07277521 -1.10559314 432.18584388 C-1.12572483 427.00191318 -1.08971238 421.8196549 -1.04459059 416.63593733 C-1.00574406 411.04568835 -1.01887534 405.45553457 -1.02571106 399.8651886 C-1.03043154 390.18008111 -1.00218131 380.49551907 -0.95157051 370.81054878 C-0.8784438 356.80778458 -0.85498927 342.80528426 -0.84367859 328.8023498 C-0.82397821 306.08396305 -0.76415388 283.36591667 -0.67895508 260.64770508 C-0.59628535 238.5783845 -0.53253779 216.50914168 -0.49438477 194.43969727 C-0.49320103 193.75932845 -0.49201729 193.07895964 -0.49079769 192.37797359 C-0.47893093 185.54538114 -0.46744861 178.71278809 -0.45624795 171.88019451 C-0.36229064 114.58659372 -0.20348577 57.29331034 0 0 Z " fill="#6B49B5" transform="translate(247,4)"/>
<path d="M0 0 C0 149.49 0 298.98 0 453 C-2.31 451.02 -4.62 449.04 -7 447 C-7.66 446.67 -8.32 446.34 -9 446 C-6.03 448.97 -3.06 451.94 0 455 C-4.0331396 459.85447806 -8.2188736 464.24680761 -12.875 468.5 C-14.20597611 469.72889926 -15.5366967 470.95807532 -16.8671875 472.1875 C-17.5487793 472.81527344 -18.23037109 473.44304687 -18.93261719 474.08984375 C-22.30657452 477.2072082 -25.65232447 480.35446989 -29 483.5 C-36.03567917 490.10090437 -43.08591293 496.68608559 -50.14111328 503.26611328 C-53.26146303 506.17663651 -56.38067102 509.08838287 -59.5 512 C-60.74999459 513.16667246 -61.99999459 514.33333913 -63.25 515.5 C-64.178125 516.36625 -64.178125 516.36625 -65.125 517.25 C-85.74999998 536.49999998 -85.74999998 536.49999998 -87.62475586 538.24975586 C-88.87559131 539.41721314 -90.12640509 540.58469363 -91.37719727 541.75219727 C-94.48923821 544.65695774 -97.60164652 547.56132252 -100.71484375 550.46484375 C-107.15099491 556.46831248 -113.5807029 562.47850974 -120 568.5 C-127.03629392 575.1002515 -134.08591067 581.68608349 -141.14111328 588.26611328 C-144.26146303 591.17663651 -147.38067102 594.08838287 -150.5 597 C-151.74999459 598.16667246 -152.99999459 599.33333913 -154.25 600.5 C-154.86875 601.0775 -155.4875 601.655 -156.125 602.25 C-176.74999999 621.49999999 -176.74999999 621.49999999 -178.62475586 623.24975586 C-179.87559131 624.41721314 -181.12640509 625.58469363 -182.37719727 626.75219727 C-185.48923821 629.65695774 -188.60164652 632.56132252 -191.71484375 635.46484375 C-198.15099547 641.468313 -204.58053431 647.47868894 -211 653.5 C-212.99860412 655.37379801 -214.99731444 657.24748262 -216.99609375 659.12109375 C-218.34277217 660.38376884 -219.6891213 661.64679523 -221.03515625 662.91015625 C-241.37936345 682 -241.37936345 682 -243 682 C-243.02286376 624.30750004 -243.04049891 566.61500048 -243.05106533 508.92249689 C-243.05231272 502.11914831 -243.05360927 495.31579974 -243.05493164 488.51245117 C-243.0550624 487.83541819 -243.05519316 487.15838521 -243.05532788 486.46083608 C-243.05959303 464.49650481 -243.06710716 442.53217611 -243.07629722 420.56784639 C-243.08598697 397.36723687 -243.09199361 374.16662888 -243.09408849 350.96601719 C-243.09546406 337.0592355 -243.09981643 323.15246118 -243.10791647 309.24568176 C-243.11318195 299.72331566 -243.11480475 290.2009534 -243.11350138 280.67858595 C-243.11285769 275.17580795 -243.11387899 269.67304285 -243.11920547 264.17026711 C-243.12403802 259.14137526 -243.12433961 254.11250511 -243.12089889 249.08361232 C-243.12047306 247.25588074 -243.12177001 245.42814785 -243.12488318 243.60041887 C-243.12884479 241.13282422 -243.12676489 238.66530989 -243.12304783 236.19771671 C-243.12567484 235.47357524 -243.12830186 234.74943377 -243.13100848 234.00334862 C-243.1141458 229.1141458 -243.1141458 229.1141458 -242 228 C-242 227.01 -242 226.02 -242 225 C-240.76928711 223.50463867 -240.76928711 223.50463867 -239.02734375 221.91796875 C-238.38273193 221.32298584 -237.73812012 220.72800293 -237.07397461 220.11499023 C-236.01641968 219.16088257 -236.01641968 219.16088257 -234.9375 218.1875 C-233.45829202 216.82816995 -231.9791263 215.46879392 -230.5 214.109375 C-229.36884766 213.07780273 -229.36884766 213.07780273 -228.21484375 212.02539062 C-224.93099263 209.02243329 -221.68519644 205.97943263 -218.4375 202.9375 C-217.19690139 201.77964054 -215.9560155 200.62208881 -214.71484375 199.46484375 C-210.97567618 195.97751173 -207.23774647 192.48885504 -203.5 189 C-202.25000541 187.83332754 -201.00000541 186.66666087 -199.75 185.5 C-199.13125 184.9225 -198.5125 184.345 -197.875 183.75 C-192.25 178.5 -192.25 178.5 -190.37524414 176.75024414 C-189.12440869 175.58278686 -187.87359491 174.41530637 -186.62280273 173.24780273 C-183.51076179 170.34304226 -180.39835348 167.43867748 -177.28515625 164.53515625 C-170.84900509 158.53168752 -164.4192971 152.52149026 -158 146.5 C-150.96370608 139.8997485 -143.91408933 133.31391651 -136.85888672 126.73388672 C-133.73853697 123.82336349 -130.61932898 120.91161713 -127.5 118 C-126.25000541 116.83332754 -125.00000541 115.66666087 -123.75 114.5 C-123.13125 113.9225 -122.5125 113.345 -121.875 112.75 C-101.25 93.5 -101.25 93.5 -99.37524414 91.75024414 C-98.12440869 90.58278686 -96.87359491 89.41530637 -95.62280273 88.24780273 C-92.51076179 85.34304226 -89.39835348 82.43867748 -86.28515625 79.53515625 C-79.84900509 73.53168752 -73.4192971 67.52149026 -67 61.5 C-59.96370608 54.8997485 -52.91408933 48.31391651 -45.85888672 41.73388672 C-43.36430588 39.40705284 -40.87047378 37.07941739 -38.37670898 34.75170898 C-37.12758768 33.5857866 -35.87840168 32.4199335 -34.62915039 31.25415039 C-31.47829737 28.31376531 -28.32825031 25.37252492 -25.1796875 22.4296875 C-22.06934242 19.52293442 -18.95656154 16.61881347 -15.84179688 13.71679688 C-14.59239351 12.55218865 -13.34371907 11.38679802 -12.09570312 10.22070312 C-10.27439635 8.51968906 -8.45009546 6.82194721 -6.625 5.125 C-6.07118652 4.60663574 -5.51737305 4.08827148 -4.94677734 3.55419922 C-1.11420045 0 -1.11420045 0 0 0 Z " fill="#A18AD3" transform="translate(245,4)"/>
<path d="M0 0 C2.89620795 1.33775514 5.21482634 2.85373964 7.65234375 4.90625 C8.33949463 5.47996338 9.02664551 6.05367676 9.73461914 6.64477539 C10.82504517 7.56311157 10.82504517 7.56311157 11.9375 8.5 C18.09135052 13.62897133 24.31904029 18.5955294 30.6953125 23.4453125 C34.50521033 26.36584816 38.22014186 29.40061643 41.9375 32.4375 C49.21995233 38.38560343 56.58808026 44.21446722 64 50 C72.07892496 56.306178 80.09211903 62.68123391 88.03417969 69.15917969 C94.62299573 74.52513186 101.30185136 79.77161655 108 85 C116.07892496 91.306178 124.09211903 97.68123391 132.03417969 104.15917969 C138.62299573 109.52513186 145.30185136 114.77161655 152 120 C160.07892496 126.306178 168.09211903 132.68123391 176.03417969 139.15917969 C182.62299573 144.52513186 189.30185136 149.77161655 196 155 C204.07972859 161.30680529 212.09429089 167.68183066 220.03637695 174.16137695 C224.90962985 178.13093355 229.82968768 182.03502855 234.78125 185.90625 C239.68317014 189.74108548 244.54259318 193.62722341 249.39697266 197.52197266 C254.11711877 201.30468091 258.87052053 205.04282568 263.63818359 208.76538086 C266.88641052 211.31072936 270.10196817 213.89097858 273.29296875 216.5078125 C274.01427979 217.09892822 274.73559082 217.69004395 275.47875977 218.29907227 C276.87923094 219.44974947 278.27698991 220.60373795 279.67163086 221.76147461 C280.62694702 222.54663452 280.62694702 222.54663452 281.6015625 223.34765625 C282.16182129 223.81179932 282.72208008 224.27594238 283.29931641 224.75415039 C285.11566657 226.08473249 286.96277834 227.04927801 289 228 C292.9577764 224.61790017 296.85099458 221.21642354 300.5 217.5 C303.53832417 214.40643357 306.7476532 211.57894493 310.03125 208.75 C311.93023071 207.06201714 313.72005988 205.31230266 315.5 203.5 C318.53832417 200.40643357 321.7476532 197.57894493 325.03125 194.75 C326.93023071 193.06201714 328.72005988 191.31230266 330.5 189.5 C332.89053167 187.06610268 335.35046262 184.78644441 337.9375 182.5625 C340.74576347 180.14382221 343.39970593 177.64100317 346 175 C349.2215855 171.72797872 352.58592145 168.70683945 356.06640625 165.71484375 C358.56431556 163.4995262 360.88024989 161.1310183 363.21875 158.75 C365.71896185 156.29365151 368.37680516 154.03690632 371.03125 151.75 C372.93023071 150.06201714 374.72005988 148.31230266 376.5 146.5 C379.53832417 143.40643357 382.7476532 140.57894493 386.03125 137.75 C387.93023071 136.06201714 389.72005988 134.31230266 391.5 132.5 C394.53832417 129.40643357 397.7476532 126.57894493 401.03125 123.75 C402.93023071 122.06201714 404.72005988 120.31230266 406.5 118.5 C409.53832417 115.40643357 412.7476532 112.57894493 416.03125 109.75 C417.93023071 108.06201714 419.72005988 106.31230266 421.5 104.5 C423.89053167 102.06610268 426.35046262 99.78644441 428.9375 97.5625 C431.74576347 95.14382221 434.39970593 92.64100317 437 90 C440.2215855 86.72797872 443.58592145 83.70683945 447.06640625 80.71484375 C449.56431556 78.4995262 451.88024989 76.1310183 454.21875 73.75 C456.71896185 71.29365151 459.37680516 69.03690632 462.03125 66.75 C463.93023071 65.06201714 465.72005988 63.31230266 467.5 61.5 C470.53832417 58.40643357 473.7476532 55.57894493 477.03125 52.75 C478.93023071 51.06201714 480.72005988 49.31230266 482.5 47.5 C485.53832417 44.40643357 488.7476532 41.57894493 492.03125 38.75 C493.93023071 37.06201714 495.72005988 35.31230266 497.5 33.5 C500.53832417 30.40643357 503.7476532 27.57894493 507.03125 24.75 C508.93023071 23.06201714 510.72005988 21.31230266 512.5 19.5 C515.51012187 16.43527275 518.68651053 13.63581976 521.9453125 10.83984375 C524.85563552 8.23383207 527.54599613 5.43037324 530.23828125 2.6015625 C532 1 532 1 535 0 C535.18301899 58.60945182 535.32404676 117.21889038 535.40852264 175.8285693 C535.41850141 182.74435595 535.42887383 189.66014198 535.43945312 196.57592773 C535.4404992 197.2641349 535.44154527 197.95234207 535.44262304 198.661404 C535.47671944 220.97189641 535.53681395 243.28222682 535.61037777 265.59262107 C535.68796978 289.16748041 535.73596509 312.74219572 535.75270796 336.3171882 C535.76369755 350.44218917 535.79843524 364.56672511 535.86333174 378.69158297 C535.90554464 388.37102862 535.91841778 398.05023305 535.90801102 407.72976411 C535.90287519 413.31866091 535.91087378 418.90674383 535.9536438 424.49549675 C535.99250136 429.61024882 535.99459117 434.72363783 535.96719116 439.83845191 C535.9638036 441.69054313 535.97401749 443.5427185 535.99906546 445.39464343 C536.1756401 459.25342902 536.1756401 459.25342902 533.26108456 463.58339202 C531.25435888 465.36367384 529.31926788 466.66901169 527 468 C525.96554511 468.88662712 524.9543166 469.80134641 523.97265625 470.74609375 C523.01230469 471.63425781 522.05195312 472.52242188 521.0625 473.4375 C515.15682278 478.90038321 509.2979314 484.41258477 503.4440918 489.9309082 C496.93099407 496.07028565 490.39062024 502.1799536 483.84277344 508.28222656 C480.72706094 511.18659237 477.61365889 514.09343299 474.5 517 C473.25001082 518.16667826 472.00001083 519.33334493 470.75 520.5 C470.13125 521.0775 469.5125 521.655 468.875 522.25 C448.25000002 541.49999998 448.25000002 541.49999998 446.37524414 543.24975586 C445.12440869 544.41721314 443.87359491 545.58469363 442.62280273 546.75219727 C439.51076179 549.65695774 436.39835348 552.56132252 433.28515625 555.46484375 C426.84900509 561.46831248 420.4192971 567.47850974 414 573.5 C406.96370608 580.1002515 399.91408933 586.68608349 392.85888672 593.26611328 C389.73853697 596.17663651 386.61932898 599.08838287 383.5 602 C382.25000541 603.16667246 381.00000541 604.33333913 379.75 605.5 C379.13125 606.0775 378.5125 606.655 377.875 607.25 C357.24999999 626.50000001 357.24999999 626.50000001 355.37524414 628.24975586 C354.12440869 629.41721314 352.87359491 630.58469363 351.62280273 631.75219727 C348.51076179 634.65695774 345.39835348 637.56132252 342.28515625 640.46484375 C335.84900461 646.46831293 329.41944158 652.47866332 323 658.5 C320.99995372 660.37528706 318.99978637 662.25044481 316.99951172 664.12548828 C315.6597904 665.38145657 314.32027416 666.63764366 312.98095703 667.89404297 C311.00923686 669.74303998 309.03632255 671.59074757 307.0625 673.4375 C306.4422998 674.01790039 305.82209961 674.59830078 305.18310547 675.19628906 C301.03891646 679.06241203 296.83355984 682.84749527 292.5390625 686.546875 C290.88678721 687.94031477 290.88678721 687.94031477 290 690 C287.10379205 688.66224486 284.78517366 687.14626036 282.34765625 685.09375 C281.66050537 684.52003662 280.97335449 683.94632324 280.26538086 683.35522461 C279.53843018 682.74300049 278.81147949 682.13077637 278.0625 681.5 C271.90864948 676.37102867 265.68095971 671.4044706 259.3046875 666.5546875 C255.49478967 663.63415184 251.77985814 660.59938357 248.0625 657.5625 C240.78004767 651.61439657 233.41191974 645.78553278 226 640 C217.92107504 633.693822 209.90788097 627.31876609 201.96582031 620.84082031 C195.37700427 615.47486814 188.69814864 610.22838345 182 605 C173.92107504 598.693822 165.90788097 592.31876609 157.96582031 585.84082031 C151.37700427 580.47486814 144.69814864 575.22838345 138 570 C129.92107504 563.693822 121.90788097 557.31876609 113.96582031 550.84082031 C107.37700427 545.47486814 100.69814864 540.22838345 94 535 C85.92027141 528.69319471 77.90570911 522.31816934 69.96362305 515.83862305 C65.09037015 511.86906645 60.17031232 507.96497145 55.21875 504.09375 C50.31682986 500.25891452 45.45740682 496.37277659 40.60302734 492.47802734 C35.88288123 488.69531909 31.12947947 484.95717432 26.36181641 481.23461914 C23.11358948 478.68927064 19.89803183 476.10902142 16.70703125 473.4921875 C15.98572021 472.90107178 15.26440918 472.30995605 14.52124023 471.70092773 C13.12076906 470.55025053 11.72301009 469.39626205 10.32836914 468.23852539 C9.6914917 467.71508545 9.05461426 467.19164551 8.3984375 466.65234375 C7.83817871 466.18820068 7.27791992 465.72405762 6.70068359 465.24584961 C4.88433343 463.91526751 3.03722166 462.95072199 1 462 C-2.9577764 465.38209983 -6.85099458 468.78357646 -10.5 472.5 C-13.53832417 475.59356643 -16.7476532 478.42105507 -20.03125 481.25 C-21.93023071 482.93798286 -23.72005988 484.68769734 -25.5 486.5 C-28.53832417 489.59356643 -31.7476532 492.42105507 -35.03125 495.25 C-36.93023071 496.93798286 -38.72005988 498.68769734 -40.5 500.5 C-42.89053167 502.93389732 -45.35046262 505.21355559 -47.9375 507.4375 C-50.74576347 509.85617779 -53.39970593 512.35899683 -56 515 C-59.2215855 518.27202128 -62.58592145 521.29316055 -66.06640625 524.28515625 C-68.56431556 526.5004738 -70.88024989 528.8689817 -73.21875 531.25 C-75.71896185 533.70634849 -78.37680516 535.96309368 -81.03125 538.25 C-82.93023071 539.93798286 -84.72005988 541.68769734 -86.5 543.5 C-89.53832417 546.59356643 -92.7476532 549.42105507 -96.03125 552.25 C-97.93023071 553.93798286 -99.72005988 555.68769734 -101.5 557.5 C-104.53832417 560.59356643 -107.7476532 563.42105507 -111.03125 566.25 C-112.93023071 567.93798286 -114.72005988 569.68769734 -116.5 571.5 C-119.53832417 574.59356643 -122.7476532 577.42105507 -126.03125 580.25 C-127.93023071 581.93798286 -129.72005988 583.68769734 -131.5 585.5 C-133.89053167 587.93389732 -136.35046262 590.21355559 -138.9375 592.4375 C-141.74576347 594.85617779 -144.39970593 597.35899683 -147 600 C-150.2215855 603.27202128 -153.58592145 606.29316055 -157.06640625 609.28515625 C-159.56431556 611.5004738 -161.88024989 613.8689817 -164.21875 616.25 C-166.71896185 618.70634849 -169.37680516 620.96309368 -172.03125 623.25 C-173.93023071 624.93798286 -175.72005988 626.68769734 -177.5 628.5 C-180.53832417 631.59356643 -183.7476532 634.42105507 -187.03125 637.25 C-188.93023071 638.93798286 -190.72005988 640.68769734 -192.5 642.5 C-195.53832417 645.59356643 -198.7476532 648.42105507 -202.03125 651.25 C-203.93023071 652.93798286 -205.72005988 654.68769734 -207.5 656.5 C-210.53832417 659.59356643 -213.7476532 662.42105507 -217.03125 665.25 C-218.93023071 666.93798286 -220.72005988 668.68769734 -222.5 670.5 C-225.51012187 673.56472725 -228.68651053 676.36418024 -231.9453125 679.16015625 C-234.85563552 681.76616793 -237.54599613 684.56962676 -240.23828125 687.3984375 C-242 689 -242 689 -245 690 C-245.18301899 631.39054818 -245.32404676 572.78110962 -245.40852264 514.1714307 C-245.41850141 507.25564405 -245.42887383 500.33985802 -245.43945312 493.42407227 C-245.44102223 492.39176151 -245.44102223 492.39176151 -245.44262304 491.338596 C-245.47671944 469.02810359 -245.53681395 446.71777318 -245.61037777 424.40737893 C-245.68796978 400.83251959 -245.73596509 377.25780428 -245.75270796 353.6828118 C-245.76369755 339.55781083 -245.79843524 325.43327489 -245.86333174 311.30841703 C-245.90554464 301.62897138 -245.91841778 291.94976695 -245.90801102 282.27023589 C-245.90287519 276.68133909 -245.91087378 271.09325617 -245.9536438 265.50450325 C-245.99250136 260.38975118 -245.99459117 255.27636217 -245.96719116 250.16154809 C-245.9638036 248.30945687 -245.97401749 246.4572815 -245.99906546 244.60535657 C-246.1756401 230.74657098 -246.1756401 230.74657098 -243.26108456 226.41660798 C-241.25435888 224.63632616 -239.31926788 223.33098831 -237 222 C-235.96554511 221.11337288 -234.9543166 220.19865359 -233.97265625 219.25390625 C-233.01230469 218.36574219 -232.05195313 217.47757813 -231.0625 216.5625 C-225.15682278 211.09961679 -219.2979314 205.58741523 -213.4440918 200.0690918 C-206.93099407 193.92971435 -200.39062024 187.8200464 -193.84277344 181.71777344 C-190.72706094 178.81340763 -187.61365889 175.90656701 -184.5 173 C-183.25001082 171.83332174 -182.00001083 170.66665507 -180.75 169.5 C-180.13125 168.9225 -179.5125 168.345 -178.875 167.75 C-158.25 148.5 -158.25 148.5 -156.37524414 146.75024414 C-155.12440869 145.58278686 -153.87359491 144.41530637 -152.62280273 143.24780273 C-149.51076179 140.34304226 -146.39835348 137.43867748 -143.28515625 134.53515625 C-136.84900509 128.53168752 -130.4192971 122.52149026 -124 116.5 C-116.96370608 109.8997485 -109.91408933 103.31391651 -102.85888672 96.73388672 C-99.73853697 93.82336349 -96.61932898 90.91161713 -93.5 88 C-92.25000541 86.83332754 -91.00000541 85.66666087 -89.75 84.5 C-88.821875 83.63375 -88.821875 83.63375 -87.875 82.75 C-67.25 63.5 -67.25 63.5 -65.37524414 61.75024414 C-64.12440869 60.58278686 -62.87359491 59.41530637 -61.62280273 58.24780273 C-58.51076179 55.34304226 -55.39835348 52.43867748 -52.28515625 49.53515625 C-45.84900461 43.53168707 -39.41944158 37.52133668 -33 31.5 C-30.99995372 29.62471294 -28.99978637 27.74955519 -26.99951172 25.87451172 C-25.6597904 24.61854343 -24.32027416 23.36235634 -22.98095703 22.10595703 C-21.00923686 20.25696002 -19.03632255 18.40925243 -17.0625 16.5625 C-16.4422998 15.98209961 -15.82209961 15.40169922 -15.18310547 14.80371094 C-11.03891646 10.93758797 -6.83355984 7.15250473 -2.5390625 3.453125 C-0.88678721 2.05968523 -0.88678721 2.05968523 0 0 Z M-2.34765625 5.28515625 C-2.91355469 5.87167969 -3.47945312 6.45820312 -4.0625 7.0625 C-6.62058799 9.6624381 -9.23422188 12.12240126 -12 14.5 C-14.60647609 16.7455794 -17.08934521 19.04551512 -19.5 21.5 C-22.53832417 24.59356643 -25.7476532 27.42105507 -29.03125 30.25 C-30.93023071 31.93798286 -32.72005988 33.68769734 -34.5 35.5 C-37.53832417 38.59356643 -40.7476532 41.42105507 -44.03125 44.25 C-45.93023071 45.93798286 -47.72005988 47.68769734 -49.5 49.5 C-52.53832417 52.59356643 -55.7476532 55.42105507 -59.03125 58.25 C-60.93023071 59.93798286 -62.72005988 61.68769734 -64.5 63.5 C-66.89053167 65.93389732 -69.35046262 68.21355559 -71.9375 70.4375 C-74.74576347 72.85617779 -77.39970593 75.35899683 -80 78 C-83.2215855 81.27202128 -86.58592145 84.29316055 -90.06640625 87.28515625 C-92.56431556 89.5004738 -94.88024989 91.8689817 -97.21875 94.25 C-99.71896185 96.70634849 -102.37680516 98.96309368 -105.03125 101.25 C-106.93023071 102.93798286 -108.72005988 104.68769734 -110.5 106.5 C-113.53832417 109.59356643 -116.7476532 112.42105507 -120.03125 115.25 C-121.93023071 116.93798286 -123.72005988 118.68769734 -125.5 120.5 C-128.53832417 123.59356643 -131.7476532 126.42105507 -135.03125 129.25 C-136.93023071 130.93798286 -138.72005988 132.68769734 -140.5 134.5 C-143.53832417 137.59356643 -146.7476532 140.42105507 -150.03125 143.25 C-151.93023071 144.93798286 -153.72005988 146.68769734 -155.5 148.5 C-157.89053167 150.93389732 -160.35046262 153.21355559 -162.9375 155.4375 C-165.74576347 157.85617779 -168.39970593 160.35899683 -171 163 C-174.2215855 166.27202128 -177.58592145 169.29316055 -181.06640625 172.28515625 C-183.56431556 174.5004738 -185.88024989 176.8689817 -188.21875 179.25 C-190.71896185 181.70634849 -193.37680516 183.96309368 -196.03125 186.25 C-197.93023071 187.93798286 -199.72005988 189.68769734 -201.5 191.5 C-204.53832417 194.59356643 -207.7476532 197.42105507 -211.03125 200.25 C-212.93023071 201.93798286 -214.72005988 203.68769734 -216.5 205.5 C-219.53832417 208.59356643 -222.7476532 211.42105507 -226.03125 214.25 C-228.5294798 216.47064871 -230.85059372 218.83859545 -233.19140625 221.22265625 C-236.3244241 224.30153988 -239.66174265 227.14730735 -243 230 C-242.67 230.99 -242.34 231.98 -242 233 C-242.33 233 -242.66 233 -243 233 C-243 382.49 -243 531.98 -243 686 C-236.08736215 680.8260872 -236.08736215 680.8260872 -230 675.0625 C-226.41989523 671.40015699 -222.7523459 667.97244829 -218.86328125 664.64453125 C-216.38369142 662.4560463 -214.0937882 660.10455987 -211.77734375 657.74609375 C-209.93406426 655.93522357 -208.02177201 654.24678646 -206.0625 652.5625 C-203.25423653 650.14382221 -200.60029407 647.64100317 -198 645 C-194.7784145 641.72797872 -191.41407855 638.70683945 -187.93359375 635.71484375 C-185.43568444 633.4995262 -183.11975011 631.1310183 -180.78125 628.75 C-178.28103815 626.29365151 -175.62319484 624.03690632 -172.96875 621.75 C-171.06976929 620.06201714 -169.27994012 618.31230266 -167.5 616.5 C-164.46167583 613.40643357 -161.2523468 610.57894493 -157.96875 607.75 C-156.06976929 606.06201714 -154.27994012 604.31230266 -152.5 602.5 C-149.46167583 599.40643357 -146.2523468 596.57894493 -142.96875 593.75 C-141.06976929 592.06201714 -139.27994012 590.31230266 -137.5 588.5 C-134.46167583 585.40643357 -131.2523468 582.57894493 -127.96875 579.75 C-126.06976929 578.06201714 -124.27994012 576.31230266 -122.5 574.5 C-120.10946833 572.06610268 -117.64953738 569.78644441 -115.0625 567.5625 C-112.25423653 565.14382221 -109.60029407 562.64100317 -107 560 C-103.7784145 556.72797872 -100.41407855 553.70683945 -96.93359375 550.71484375 C-94.43568444 548.4995262 -92.11975011 546.1310183 -89.78125 543.75 C-87.28103815 541.29365151 -84.62319484 539.03690632 -81.96875 536.75 C-80.06976929 535.06201714 -78.27994012 533.31230266 -76.5 531.5 C-73.46167583 528.40643357 -70.2523468 525.57894493 -66.96875 522.75 C-65.06976929 521.06201714 -63.27994012 519.31230266 -61.5 517.5 C-58.46167583 514.40643357 -55.2523468 511.57894493 -51.96875 508.75 C-50.06976929 507.06201714 -48.27994012 505.31230266 -46.5 503.5 C-43.46167583 500.40643357 -40.2523468 497.57894493 -36.96875 494.75 C-35.06976929 493.06201714 -33.27994012 491.31230266 -31.5 489.5 C-29.10946833 487.06610268 -26.64953738 484.78644441 -24.0625 482.5625 C-20.53705947 479.52613792 -17.27521746 476.29780989 -14.015625 472.98046875 C-11.99596512 470.99603549 -9.90301916 469.15054043 -7.75 467.3125 C-4.78947356 464.77157573 -2.30555301 462.17013538 0 459 C-0.6496875 458.36191406 -1.299375 457.72382813 -1.96875 457.06640625 C-2.8040625 456.24011719 -3.639375 455.41382813 -4.5 454.5625 C-5.3353125 453.73878906 -6.170625 452.91507812 -7.03125 452.06640625 C-9 450 -9 450 -9 449 C-8.43410156 449.5775 -7.86820313 450.155 -7.28515625 450.75 C-6.55167969 451.4925 -5.81820312 452.235 -5.0625 453 C-3.96615234 454.11375 -3.96615234 454.11375 -2.84765625 455.25 C-1.30313847 457.11460992 -1.30313847 457.11460992 0 457 C0 307.51 0 158.02 0 4 C-1.18975254 3.88497893 -1.18975254 3.88497893 -2.34765625 5.28515625 Z M2 4 C1.65666413 61.88719994 1.39232377 119.7743155 1.23402006 177.6623313 C1.21531043 184.49656901 1.19586207 191.33080453 1.17602539 198.16503906 C1.174064 198.84511822 1.17210262 199.52519738 1.1700818 200.225885 C1.10619055 222.25914207 0.99354378 244.29182115 0.85554169 266.32472822 C0.70993724 289.613765 0.62003967 312.90238176 0.58867258 336.19191051 C0.56809055 350.14083829 0.50309057 364.08810653 0.381253 378.03652343 C0.301959 387.60166938 0.27799864 397.16595752 0.29747934 406.73140827 C0.30708797 412.25085927 0.29237311 417.7674112 0.21191788 423.28634644 C0.13872859 428.34386666 0.13533361 433.39654997 0.18651658 438.45429644 C0.19283771 440.27962928 0.17394448 442.10526802 0.12675226 443.93000165 C-0.26659191 453.43038849 -0.26659191 453.43038849 3.44626038 461.8708753 C6.95684386 465.36126287 10.88173302 468.10224924 15.05794459 470.73444971 C18.18094253 472.7695672 21.0322869 475.10428609 23.9375 477.4375 C24.90163818 478.19172241 24.90163818 478.19172241 25.88525391 478.96118164 C30.24051 482.37680966 34.52961689 485.86930348 38.8125 489.375 C44.2729349 493.84166747 49.81214025 498.18068056 55.4375 502.4375 C62.03815846 507.43529277 68.45995264 512.61457422 74.82910156 517.90332031 C81.45360036 523.39867805 88.20878968 528.71315932 95 534 C103.0811071 540.30330984 111.09219114 546.68129272 119.03417969 553.15917969 C125.62299573 558.52513186 132.30185136 563.77161655 139 569 C147.07892496 575.306178 155.09211903 581.68123391 163.03417969 588.15917969 C169.62299573 593.52513186 176.30185136 598.77161655 183 604 C191.07972859 610.30680529 199.09429089 616.68183066 207.03637695 623.16137695 C211.90962985 627.13093355 216.82968768 631.03502855 221.78125 634.90625 C226.68317014 638.74108548 231.54259318 642.62722341 236.39697266 646.52197266 C240.55584639 649.85487922 244.73884201 653.15491285 248.9375 656.4375 C254.0051688 660.4020028 259.0140356 664.43330595 264 668.5 C266.66515584 670.6685309 269.33212966 672.83480984 272 675 C272.66193359 675.53818359 273.32386719 676.07636719 274.00585938 676.63085938 C275.91476748 678.17796061 277.83111586 679.71529923 279.75 681.25 C280.32234375 681.71599609 280.8946875 682.18199219 281.484375 682.66210938 C285.31589632 685.90093535 285.31589632 685.90093535 290 687 C291.97397781 685.59851059 291.97397781 685.59851059 293.75 683.5 C296.41985464 680.65182482 299.09089363 677.97057805 302.0625 675.4375 C305.27302136 672.67757813 308.25357247 669.76908985 311.21875 666.75 C313.71896185 664.29365151 316.37680516 662.03690632 319.03125 659.75 C320.93023071 658.06201714 322.72005988 656.31230266 324.5 654.5 C327.53832417 651.40643357 330.7476532 648.57894493 334.03125 645.75 C335.93023071 644.06201714 337.72005988 642.31230266 339.5 640.5 C342.53832417 637.40643357 345.7476532 634.57894493 349.03125 631.75 C350.93023071 630.06201714 352.72005988 628.31230266 354.5 626.5 C356.89053167 624.06610268 359.35046262 621.78644441 361.9375 619.5625 C364.74576347 617.14382221 367.39970593 614.64100317 370 612 C373.2215855 608.72797872 376.58592145 605.70683945 380.06640625 602.71484375 C382.56431556 600.4995262 384.88024989 598.1310183 387.21875 595.75 C389.71896185 593.29365151 392.37680516 591.03690632 395.03125 588.75 C396.93023071 587.06201714 398.72005988 585.31230266 400.5 583.5 C403.53832417 580.40643357 406.7476532 577.57894493 410.03125 574.75 C411.93023071 573.06201714 413.72005988 571.31230266 415.5 569.5 C418.53832417 566.40643357 421.7476532 563.57894493 425.03125 560.75 C426.93023071 559.06201714 428.72005988 557.31230266 430.5 555.5 C433.53832417 552.40643357 436.7476532 549.57894493 440.03125 546.75 C441.93023071 545.06201714 443.72005988 543.31230266 445.5 541.5 C447.89053167 539.06610268 450.35046262 536.78644441 452.9375 534.5625 C455.74576347 532.14382221 458.39970593 529.64100317 461 527 C464.2215855 523.72797872 467.58592145 520.70683945 471.06640625 517.71484375 C473.56431556 515.4995262 475.88024989 513.1310183 478.21875 510.75 C480.71896185 508.29365151 483.37680516 506.03690632 486.03125 503.75 C487.93023071 502.06201714 489.72005988 500.31230266 491.5 498.5 C494.53832417 495.40643357 497.7476532 492.57894493 501.03125 489.75 C502.93023071 488.06201714 504.72005988 486.31230266 506.5 484.5 C509.53832417 481.40643357 512.7476532 478.57894493 516.03125 475.75 C518.5294798 473.52935129 520.85059372 471.16140455 523.19140625 468.77734375 C526.3244241 465.69846012 529.66174265 462.85269265 533 460 C531.02 457.69 529.04 455.38 527 453 C529 454 529 454 533 457 C533 307.51 533 158.02 533 4 C526.08736215 9.1739128 526.08736215 9.1739128 520 14.9375 C516.41989523 18.59984301 512.7523459 22.02755171 508.86328125 25.35546875 C506.38369142 27.5439537 504.0937882 29.89544013 501.77734375 32.25390625 C499.93406426 34.06477643 498.02177201 35.75321354 496.0625 37.4375 C493.25423653 39.85617779 490.60029407 42.35899683 488 45 C484.7784145 48.27202128 481.41407855 51.29316055 477.93359375 54.28515625 C475.43568444 56.5004738 473.11975011 58.8689817 470.78125 61.25 C468.28103815 63.70634849 465.62319484 65.96309368 462.96875 68.25 C461.06976929 69.93798286 459.27994012 71.68769734 457.5 73.5 C454.46167583 76.59356643 451.2523468 79.42105507 447.96875 82.25 C446.06976929 83.93798286 444.27994012 85.68769734 442.5 87.5 C439.46167583 90.59356643 436.2523468 93.42105507 432.96875 96.25 C431.06976929 97.93798286 429.27994012 99.68769734 427.5 101.5 C424.46167583 104.59356643 421.2523468 107.42105507 417.96875 110.25 C416.06976929 111.93798286 414.27994012 113.68769734 412.5 115.5 C410.10946833 117.93389732 407.64953738 120.21355559 405.0625 122.4375 C402.25423653 124.85617779 399.60029407 127.35899683 397 130 C393.7784145 133.27202128 390.41407855 136.29316055 386.93359375 139.28515625 C384.43568444 141.5004738 382.11975011 143.8689817 379.78125 146.25 C377.28103815 148.70634849 374.62319484 150.96309368 371.96875 153.25 C370.06976929 154.93798286 368.27994012 156.68769734 366.5 158.5 C363.46167583 161.59356643 360.2523468 164.42105507 356.96875 167.25 C355.06976929 168.93798286 353.27994012 170.68769734 351.5 172.5 C348.46167583 175.59356643 345.2523468 178.42105507 341.96875 181.25 C340.06976929 182.93798286 338.27994012 184.68769734 336.5 186.5 C333.46167583 189.59356643 330.2523468 192.42105507 326.96875 195.25 C325.06976929 196.93798286 323.27994012 198.68769734 321.5 200.5 C319.10946833 202.93389732 316.64953738 205.21355559 314.0625 207.4375 C310.53705947 210.47386208 307.27521746 213.70219011 304.015625 217.01953125 C301.99596512 219.00396451 299.90301916 220.84945957 297.75 222.6875 C294.78947356 225.22842427 292.30555301 227.82986462 290 231 C292.31 233.31 294.62 235.62 297 238 C296.113125 237.236875 295.22625 236.47375 294.3125 235.6875 C292.87504141 234.45828491 291.43753391 233.22912701 290 232 C289.04222656 231.17628906 288.08445312 230.35257813 287.09765625 229.50390625 C281.21398038 224.46556519 275.25643699 219.59260249 269.08520508 214.90893555 C264.67120141 211.5476688 260.35832214 208.07319701 256.0625 204.5625 C248.78016296 198.6142586 241.41191634 192.78553013 234 187 C225.92107504 180.693822 217.90788097 174.31876609 209.96582031 167.84082031 C203.37700427 162.47486814 196.69814864 157.22838345 190 152 C181.92107504 145.693822 173.90788097 139.31876609 165.96582031 132.84082031 C159.37700427 127.47486814 152.69814864 122.22838345 146 117 C137.92107504 110.693822 129.90788097 104.31876609 121.96582031 97.84082031 C115.37700427 92.47486814 108.69814864 87.22838345 102 82 C93.92107504 75.693822 85.90788097 69.31876609 77.96582031 62.84082031 C71.37700427 57.47486814 64.69814864 52.22838345 58 47 C49.92397529 40.69608586 41.91272487 34.32440148 33.97460938 27.84741211 C28.99087301 23.78755219 23.96163046 19.79065515 18.89355469 15.83666992 C14.50467698 12.41128205 10.18286392 8.90935281 5.890625 5.36328125 C4.11810626 3.8050405 4.11810626 3.8050405 2 4 Z " fill="#252227" transform="translate(245,0)"/>
<path d="M0 0 C0.99 0.33 1.98 0.66 3 1 C2.99658252 2.44447534 2.99658252 2.44447534 2.99309599 3.91813201 C2.85868948 60.95197945 2.75591579 117.98581499 2.69360802 175.0197886 C2.68612386 181.8630462 2.67834455 188.70630345 2.67041016 195.54956055 C2.66923332 196.57105226 2.66923332 196.57105226 2.66803272 197.61318016 C2.64245438 219.69510561 2.59737895 241.77693907 2.54221668 263.85880877 C2.48404076 287.18937869 2.44803013 310.51988166 2.43546903 333.85052997 C2.42722321 347.83111464 2.40115003 361.81143528 2.3525012 375.7919387 C2.32086329 385.36996131 2.31118175 394.9478468 2.31899174 404.52591791 C2.32284692 410.05772151 2.31680585 415.58906272 2.28476715 421.12078476 C2.25567252 426.18096624 2.25402625 431.2403723 2.27460663 436.3005887 C2.27715196 438.13513598 2.26945203 439.96973071 2.25070091 441.80418392 C2.22674641 444.2914941 2.23951346 446.77597651 2.26171303 449.26323986 C2.24595095 449.98168631 2.23018886 450.70013277 2.21394914 451.44035032 C2.27161895 454.28400801 2.47886237 456.40275515 4.38502984 458.58730034 C6.20374339 460.16318271 6.20374339 460.16318271 9 462 C8.67 462.66 8.34 463.32 8 464 C6.02 462.35 4.04 460.7 2 459 C-2.12177332 461.22798558 -5.06612103 463.88616882 -8.3125 467.25 C-12.12209513 471.15194895 -16.02429944 474.85001172 -20.171875 478.390625 C-22.64033969 480.56371785 -24.91535363 482.90472369 -27.21875 485.25 C-29.71896185 487.70634849 -32.37680516 489.96309368 -35.03125 492.25 C-36.93023071 493.93798286 -38.72005988 495.68769734 -40.5 497.5 C-42.89053167 499.93389732 -45.35046262 502.21355559 -47.9375 504.4375 C-50.74576347 506.85617779 -53.39970593 509.35899683 -56 512 C-59.2215855 515.27202128 -62.58592145 518.29316055 -66.06640625 521.28515625 C-68.56431556 523.5004738 -70.88024989 525.8689817 -73.21875 528.25 C-75.71896185 530.70634849 -78.37680516 532.96309368 -81.03125 535.25 C-82.93023071 536.93798286 -84.72005988 538.68769734 -86.5 540.5 C-89.53832417 543.59356643 -92.7476532 546.42105507 -96.03125 549.25 C-97.93023071 550.93798286 -99.72005988 552.68769734 -101.5 554.5 C-104.53832417 557.59356643 -107.7476532 560.42105507 -111.03125 563.25 C-112.93023071 564.93798286 -114.72005988 566.68769734 -116.5 568.5 C-119.53832417 571.59356643 -122.7476532 574.42105507 -126.03125 577.25 C-127.93023071 578.93798286 -129.72005988 580.68769734 -131.5 582.5 C-133.89053167 584.93389732 -136.35046262 587.21355559 -138.9375 589.4375 C-141.74576347 591.85617779 -144.39970593 594.35899683 -147 597 C-150.2215855 600.27202128 -153.58592145 603.29316055 -157.06640625 606.28515625 C-159.56431556 608.5004738 -161.88024989 610.8689817 -164.21875 613.25 C-166.71896185 615.70634849 -169.37680516 617.96309368 -172.03125 620.25 C-173.93023071 621.93798286 -175.72005988 623.68769734 -177.5 625.5 C-180.53832417 628.59356643 -183.7476532 631.42105507 -187.03125 634.25 C-188.93023071 635.93798286 -190.72005988 637.68769734 -192.5 639.5 C-195.53832417 642.59356643 -198.7476532 645.42105507 -202.03125 648.25 C-203.93023071 649.93798286 -205.72005988 651.68769734 -207.5 653.5 C-210.53832417 656.59356643 -213.7476532 659.42105507 -217.03125 662.25 C-219.53772851 664.4779809 -221.86599983 666.8544463 -224.21484375 669.24609375 C-226.73170006 671.71889131 -229.40106844 673.99702079 -232.08203125 676.2890625 C-233.91550764 677.924628 -235.57599969 679.64121755 -237.25 681.4375 C-240 684 -240 684 -244 684 C-244 533.85 -244 383.7 -244 229 C-242.68 229.33 -241.36 229.66 -240 230 C-240.66 230.33 -241.32 230.66 -242 231 C-242 379.83 -242 528.66 -242 682 C-232.05253425 672.88684977 -232.05253425 672.88684977 -222.1875 663.6875 C-220.81654432 662.3995926 -219.44544721 661.11183572 -218.07421875 659.82421875 C-217.39536621 659.18661621 -216.71651367 658.54901367 -216.01708984 657.89208984 C-212.85056572 654.9217967 -209.67544103 651.96075388 -206.5 649 C-201.32587733 644.17458745 -196.15996539 639.34054788 -191 634.5 C-183.96373246 627.89972048 -176.91408923 621.31391643 -169.85888672 614.73388672 C-166.73853697 611.82336349 -163.61932898 608.91161713 -160.5 606 C-159.25000541 604.83332754 -158.00000541 603.66666087 -156.75 602.5 C-156.13125 601.9225 -155.5125 601.345 -154.875 600.75 C-134.24999999 581.49999999 -134.24999999 581.49999999 -132.37524414 579.75024414 C-131.12440869 578.58278686 -129.87359491 577.41530637 -128.62280273 576.24780273 C-125.51076179 573.34304226 -122.39835348 570.43867748 -119.28515625 567.53515625 C-112.84900509 561.53168752 -106.4192971 555.52149026 -100 549.5 C-92.96370608 542.8997485 -85.91408933 536.31391651 -78.85888672 529.73388672 C-75.73853697 526.82336349 -72.61932898 523.91161713 -69.5 521 C-68.25000541 519.83332754 -67.00000541 518.66666087 -65.75 517.5 C-64.821875 516.63375 -64.821875 516.63375 -63.875 515.75 C-43.25 496.5 -43.25 496.5 -41.37524414 494.75024414 C-40.12440869 493.58278686 -38.87359491 492.41530637 -37.62280273 491.24780273 C-34.51076179 488.34304226 -31.39835348 485.43867748 -28.28515625 482.53515625 C-19.17604191 474.03840932 -10.08400945 465.52357959 -1 457 C-1.93719709 455.88167191 -2.87801174 454.76637489 -3.8203125 453.65234375 C-4.34383301 453.03093506 -4.86735352 452.40952637 -5.40673828 451.76928711 C-7.40045246 449.55530509 -9.60341797 447.76219267 -12 446 C-11.67 445.34 -11.34 444.68 -11 444 C-9.70756532 445.1241176 -8.41607925 446.24932592 -7.125 447.375 C-6.40570313 448.00148438 -5.68640625 448.62796875 -4.9453125 449.2734375 C-3.5923402 450.47426834 -2.2791655 451.7208345 -1 453 C-0.67 303.51 -0.34 154.02 0 0 Z " fill="#433952" transform="translate(245,3)"/>
<path d="M0 0 C10.15608624 7.51550381 20.03563769 15.37520287 29.8125 23.375 C35.27302666 27.84156135 40.81213515 32.1806767 46.4375 36.4375 C53.03815846 41.43529277 59.45995264 46.61457422 65.82910156 51.90332031 C72.45360036 57.39867805 79.20878968 62.71315932 86 68 C94.0811071 74.30330984 102.09219114 80.68129272 110.03417969 87.15917969 C116.62299573 92.52513186 123.30185136 97.77161655 130 103 C138.07892496 109.306178 146.09211903 115.68123391 154.03417969 122.15917969 C160.62299573 127.52513186 167.30185136 132.77161655 174 138 C182.07972859 144.30680529 190.09429089 150.68183066 198.03637695 157.16137695 C202.90962985 161.13093355 207.82968768 165.03502855 212.78125 168.90625 C217.68317014 172.74108548 222.54259318 176.62722341 227.39697266 180.52197266 C231.55584639 183.85487922 235.73884201 187.15491285 239.9375 190.4375 C245.68703609 194.9354364 251.35954064 199.52272852 257.01025391 204.14404297 C260.31844088 206.84369787 263.64301918 209.51501876 267.01953125 212.12890625 C267.97762695 212.87140625 267.97762695 212.87140625 268.95507812 213.62890625 C270.1572236 214.55674514 271.3627505 215.48022624 272.57226562 216.3984375 C275.53064226 218.68172461 277.93922435 220.86906717 280 224 C277.21545667 222.70234874 274.92758387 221.27315368 272.56640625 219.3125 C271.92445313 218.78398438 271.2825 218.25546875 270.62109375 217.7109375 C269.94175781 217.14632812 269.26242187 216.58171875 268.5625 216 C263.59930074 211.91794844 258.61412951 207.89160293 253.5 204 C247.91326042 199.73916153 242.45755753 195.33541385 237.01611328 190.89111328 C230.41328495 185.50463711 223.71691408 180.24303122 217 175 C208.92107504 168.693822 200.90788097 162.31876609 192.96582031 155.84082031 C186.37700427 150.47486814 179.69814864 145.22838345 173 140 C164.92107504 133.693822 156.90788097 127.31876609 148.96582031 120.84082031 C142.37700427 115.47486814 135.69814864 110.22838345 129 105 C120.92107504 98.693822 112.90788097 92.31876609 104.96582031 85.84082031 C98.37700427 80.47486814 91.69814864 75.22838345 85 70 C76.92027141 63.69319471 68.90570911 57.31816934 60.96362305 50.83862305 C56.09037015 46.86906645 51.17031232 42.96497145 46.21875 39.09375 C41.32052397 35.26180447 36.46470315 31.37867057 31.61401367 27.48681641 C27.3474352 24.06756856 23.05553044 20.68250924 18.75 17.3125 C17.04858772 15.97610405 15.34824633 14.63837105 13.64892578 13.29931641 C12.54659848 12.4307073 11.44340255 11.56319947 10.33935547 10.69677734 C8.7830734 9.47167884 7.23508285 8.2360694 5.6875 7 C4.80449219 6.29875 3.92148437 5.5975 3.01171875 4.875 C1 3 1 3 0 0 Z " fill="#2A232F" transform="translate(254,465)"/>
<path d="M0 0 C1.32 0.33 2.64 0.66 4 1 C3.01 1.495 3.01 1.495 2 2 C2 150.83 2 299.66 2 453 C2.99 452.34 3.98 451.68 5 451 C4.505 452.98 4.505 452.98 4 455 C2.68 455 1.36 455 0 455 C0 304.85 0 154.7 0 0 Z " fill="#41394B" transform="translate(1,232)"/>
<path d="M0 0 C0.33 0.99 0.66 1.98 1 3 C-1.97 5.475 -1.97 5.475 -5 8 C-5.66 7.67 -6.32 7.34 -7 7 C-4.69 4.69 -2.38 2.38 0 0 Z " fill="#352E3A" transform="translate(81,612)"/>
<path d="M0 0 C0.33 0.99 0.66 1.98 1 3 C-1.97 5.475 -1.97 5.475 -5 8 C-5.66 7.67 -6.32 7.34 -7 7 C-4.69 4.69 -2.38 2.38 0 0 Z " fill="#352E3A" transform="translate(172,527)"/>
<path d="M0 0 C0.33 0.99 0.66 1.98 1 3 C-1.31 4.65 -3.62 6.3 -6 8 C-4.55746343 4.63408134 -2.66735273 2.48952921 0 0 Z " fill="#352F3B" transform="translate(111,584)"/>
<path d="M0 0 C0.33 0.99 0.66 1.98 1 3 C-1.31 4.65 -3.62 6.3 -6 8 C-4.55746343 4.63408134 -2.66735273 2.48952921 0 0 Z " fill="#362F3B" transform="translate(202,499)"/>
<path d="M0 0 C0.66 0.33 1.32 0.66 2 1 C-1.465 3.97 -1.465 3.97 -5 7 C-3.92643531 2.70574125 -3.4915227 2.25259529 0 0 Z " fill="#352E39" transform="translate(29,203)"/>
<path d="M0 0 C0.66 0.33 1.32 0.66 2 1 C-1.465 3.97 -1.465 3.97 -5 7 C-3.92643531 2.70574125 -3.4915227 2.25259529 0 0 Z " fill="#362F3B" transform="translate(44,189)"/>
<path d="M0 0 C0.66 0.33 1.32 0.66 2 1 C-1.465 3.97 -1.465 3.97 -5 7 C-3.92643531 2.70574125 -3.4915227 2.25259529 0 0 Z " fill="#352E39" transform="translate(120,118)"/>
<path d="M0 0 C3.35595828 0.59927826 5.37801226 1.84622436 8 4 C7.67 4.99 7.34 5.98 7 7 C5.83040013 6.02433888 4.66438823 5.044375 3.5 4.0625 C2.8503125 3.51722656 2.200625 2.97195312 1.53125 2.41015625 C1.0259375 1.94480469 0.520625 1.47945313 0 1 C0 0.67 0 0.34 0 0 Z " fill="#2E2536" transform="translate(377,106)"/>
<path d="M0 0 C0.66 0.33 1.32 0.66 2 1 C-1.465 3.97 -1.465 3.97 -5 7 C-3.92643531 2.70574125 -3.4915227 2.25259529 0 0 Z " fill="#362F3B" transform="translate(135,104)"/>
<path d="M0 0 C0.66 0.33 1.32 0.66 2 1 C-1.465 3.97 -1.465 3.97 -5 7 C-3.92643531 2.70574125 -3.4915227 2.25259529 0 0 Z " fill="#352E3A" transform="translate(211,33)"/>
<path d="M0 0 C0.66 0.33 1.32 0.66 2 1 C-1.465 3.97 -1.465 3.97 -5 7 C-3.92643531 2.70574125 -3.4915227 2.25259529 0 0 Z " fill="#362F3B" transform="translate(226,19)"/>
</svg>
